<?xml version="1.0" encoding="iso-8859-1"?>
<!-- Uploaded to: SVGRepo, www.svgrepo.com, Transformed by: SVGRepo Tools -->
<svg height="800px" width="800px" version="1.1" id="Layer_1" xmlns="http://www.w3.org/2000/svg" xmlns:xlink="http://www.w3.org/1999/xlink" 
	 viewBox="0 0 508 508" xml:space="preserve">
<circle style="fill:#e579b9;" cx="254" cy="254" r="254"/>
<path style="fill:#060004;" d="M456.8,407.2C410.4,468.4,336.8,508,254,508c-2.8,0-5.6,0-8.4,0c-79.2-2.4-149.6-41.6-194-100.8
	c20.8-50.8,56-54.8,56-54.8c56-26.8,89.2-64.8,91.6-67.2h110.4c2,2.4,35.6,40.4,91.6,67.2C400.8,352.4,435.6,356.4,456.8,407.2z"/>
<path style="fill:#FFFFFF;" d="M309.2,285.2c-1.2-20.8-2.8-43.2-4.8-67.2c-33.6,0-66.8,0-100.4,0c-1.6,18.8-2.8,36.8-4,53.6l0,0
	c-0.4,4.4-0.4,8.8-0.8,13.2C225.2,324,282.8,324,309.2,285.2z"/>
<path style="fill:#fff;" d="M308,268.8c-15.6,16-34.4,26-54,26s-38.4-10-54-26c1.2-16,2.4-32.8,4-50.8h100.4
	C305.6,236,307.2,252.8,308,268.8z"/>
<g>
	<path style="fill:#fff;" d="M178.4,120.4c-4.8,10.4-8,23.2-8,38.8c0,57.2,37.6,129.2,83.6,129.2s83.6-72,83.6-129.2
		c0-15.6-2.8-28.4-8-38.8C329.6,120.4,178.4,120.4,178.4,120.4z"/>
	<path style="fill:#fff;" d="M352,193.6c-6,13.6-16.4,21.2-23.6,17.2s-8-18-2-31.2c6-13.6,16.4-21.2,23.6-17.2
		C357.2,166.4,358,180.4,352,193.6z"/>
	<path style="fill:#fff;" d="M156,193.6c6,13.6,16.4,21.2,23.6,17.2c7.2-4,8-18,2-31.2c-6-13.6-16.4-21.2-23.6-17.2
		C150.8,166.4,150,180.4,156,193.6z"/>
</g>
<path style="fill:#fff;" d="M380.8,342v132.4C343.6,496,300.4,508,254,508c-2.8,0-5.6,0-8.4,0c-42.8-1.2-83.2-13.6-118-33.6V342
	c9.2-5.2,17.2-10.4,24.8-16v84H356v-84C363.2,331.2,371.6,336.8,380.8,342z"/>
<path style="fill:#060004;" d="M159.6,122.8c-1.2,6.4-2,13.2-2,20s0.8,13.2,2,19.6l0,0c2.8,13.2,8.4,25.6,16,36
	c-3.2-13.2-5.2-42.4-4.8-44.4c1.2-16,17.6-26.4,32.8-20.4c13.6,5.6,31.2,8.8,50.4,8.8s36.8-3.2,50.4-8.8c15.2-6,32,4.4,32.8,20.8
	c0,1.2-1.6,30.8-4.8,43.6c8-10.4,13.2-22.8,16-36l0,0c1.2-6.4,2-12.8,2-19.6s-0.8-13.6-2-20H159.6V122.8z"/>
<path style="fill:#060004;" d="M254,113.6c44,0,81.6,11.6,97.2,27.6c0.4-4.4,0.8-8.4,0.8-12.8C352.4,74,308.4,30,254,30
	s-98.4,44-98.4,98.4c0,4.4,0.4,8.8,0.8,12.8C172.4,124.8,210,113.6,254,113.6z"/>
<path style="fill:#060004;" d="M254,113.6L254,113.6c-74.4-0.8-97.6,27.6-97.6,27.6l24,20.4c4.8,4,11.6,4.4,16.8,0.8
	c21.6-16,56.8-13.2,56.8-13.2l0,0c0,0,35.2-2.8,56.8,13.2c5.2,3.6,12,3.2,16.8-0.8l24-20.4C351.6,141.2,328.4,112.8,254,113.6z"/>
<g>
</g>
<g>
</g>
<g>
</g>
<g>
</g>
<g>
</g>
<g>
</g>
<g>
</g>
<g>
</g>
<g>
</g>
<g>
</g>
<g>
</g>
<g>
</g>
<g>
</g>
<g>
</g>
<g>
</g>
</svg>
